{"title":"Full Metal Jacket.1987.XViD.DVDRip.AC3(5.1).SWESUB.avi","uid":5519392,"size":1470804560,"categoryP":"video","categoryS":"movies","magnet":"?xt=urn:btih:703e9f78052eace10456eead63f3b6b7a67f0e58&amp;dn=Full+Metal+Jacket.1987.XViD.DVDRip.AC3%285.1%29.SWESUB.avi&amp;tr=udp%3A%2F%2Ftracker.openbittorrent.com%3A80&amp;tr=udp%3A%2F%2Fopen.demonii.com%3A1337&amp;tr=udp%3A%2F%2Ftracker.coppersurfer.tk%3A6969&amp;tr=udp%3A%2F%2Fexodus.desync.com%3A6969","seeders":0,"leechers":1,"uploader":"Zen_Bud","files":-1,"time":1272439597,"description":"General\nComplete name                    : Full Metal Jacket.avi\nFormat                           : AVI\nFile size                        : 1.37 GiB\nDuration                         : 1h 51mn\nOverall bit rate                 : 1 755 Kbps\n\nVideo\nID                               : 0\nFormat                           : MPEG-4 Visual\nCodec ID/Hint                    : XviD\nDuration                         : 1h 51mn\nBit rate                         : 1 360 Kbps\nWidth                            : 718 pixels\nHeight                           : 576 pixels\nDisplay aspect ratio             : 4:3\nResolution                       : 8 bits\nColorimetry                      : 4:2:0\nScan type                        : Progressive\nBits/(Pixel*Frame)               : 0.132\nStream size                      : 1.06 GiB (77%)\nWriting library                  : XviD 1.1.2 (UTC 2006-11-01)\n\nAudio\nID                               : 1\nFormat                           : AC-3\nDuration                         : 1h 51mn\nBit rate mode                    : Constant\nBit rate                         : 384 Kbps\nChannel(s)                       : 6 channels\nChannel positions                : Front: L C R, Side: L R, LFE\nSampling rate                    : 48.0 KHz\nStream size                      : 307 MiB (22%)\n\n\n","torrent":{"xt":"urn:btih:703e9f78052eace10456eead63f3b6b7a67f0e58","amp;dn":"Full+Metal+Jacket.1987.XViD.DVDRip.AC3%285.1%29.SWESUB.avi","amp;tr":["udp%3A%2F%2Ftracker.openbittorrent.com%3A80","udp%3A%2F%2Fopen.demonii.com%3A1337","udp%3A%2F%2Ftracker.coppersurfer.tk%3A6969","udp%3A%2F%2Fexodus.desync.com%3A6969"],"infoHash":"703e9f78052eace10456eead63f3b6b7a67f0e58","infoHashBuffer":{"type":"Buffer","data":[112,62,159,120,5,46,172,225,4,86,238,173,99,243,182,183,166,127,14,88]},"announce":[],"urlList":[]}}